# xmcd
#
# Track frame offsets: 
#        150
#        15397
#        28472
#        41697
#        55140
#        68922
#        81855
#        95167
#        107679
#        120582
#        133172
#        144970
#        157967
#
# Disc length: 2299 seconds
#
# Revision: 6
# Processed by: cddbd v1.5.2PL0 Copyright (c) Steve Scherf et al.
# Submitted via: ExactAudioCopyFreeDBPlugin 1.0
#
DISCID=af08f90d
DTITLE=Mississippi John Hurt - Avalon Blues: The Complete 1928 OKeh Re
DTITLE=cordings
DYEAR=1996
DGENRE=Blues
TTITLE0=Frankie
TTITLE1=Nobody's Dirty Business
TTITLE2=Ain't No Tellin'
TTITLE3=Louis Collins
TTITLE4=Avalon Blues
TTITLE5=Big Leg Blues
TTITLE6=Stack O'Lee
TTITLE7=Candy Man Blues
TTITLE8=Got The Blues (Can't Be Satisfied)
TTITLE9=Blessed Be The Name
TTITLE10=Praying On The Old Camp Ground
TTITLE11=Blue Harvest Blues
TTITLE12=Spike Driver Blues
EXTD=
EXTT0=
EXTT1=
EXTT2=
EXTT3=
EXTT4=
EXTT5=
EXTT6=
EXTT7=
EXTT8=
EXTT9=
EXTT10=
EXTT11=
EXTT12=
PLAYORDER=
